<svg width="39" height="39" viewBox="0 0 39 39" fill="none" xmlns="http://www.w3.org/2000/svg">
<path fill-rule="evenodd" clip-rule="evenodd" d="M17.672 0.0311823C14.9199 0.36386 12.8181 0.979696 10.6076 2.10093C5.68137 4.59966 2.03403 9.1322 0.619601 14.5131C0.333287 15.6024 0.271303 16.7005 0.451696 17.4844C0.735275 18.7161 1.8201 20.0547 3.06006 20.703C3.7686 21.0735 4.9092 21.4058 5.47199 21.4058H5.82202V24.473C5.82202 27.7877 5.79549 28.0147 5.34455 28.5621C4.83008 29.1865 4.51332 29.2812 2.75314 29.3362C1.19587 29.385 1.18649 29.3866 0.800359 29.6589C-0.501408 30.5768 -0.148734 32.6718 1.37709 33.0851C1.96157 33.2434 4.81258 33.1446 5.4574 32.9437C7.28914 32.373 8.68032 31.0137 9.40017 29.0912C9.58767 28.5905 9.59897 28.3887 9.62969 24.9834L9.66196 21.4022L11.6388 21.4269L13.6157 21.4514L13.6612 29.5677C13.7114 38.4995 13.6712 37.9096 14.2684 38.4771C15.2193 39.3808 16.7588 39.0723 17.3169 37.8664C17.4771 37.5201 17.4858 37.0926 17.4877 29.4519L17.4897 21.4022L19.4723 21.4268L21.4549 21.4514L21.5005 29.6282L21.546 37.8052L21.8195 38.1936C22.7306 39.4876 24.7716 39.1591 25.2249 37.6455C25.2994 37.3967 25.3289 35.042 25.3289 29.3519V21.4058H27.2804H29.2318L29.2728 24.8484C29.3181 28.6565 29.3264 28.7197 29.944 29.9781C30.3873 30.8813 31.4799 31.9877 32.3933 32.4586C33.4668 33.0119 33.8606 33.095 35.6547 33.1463C37.0441 33.186 37.334 33.1702 37.6865 33.0355C38.5011 32.7243 38.9958 32.0673 39 31.2912C39.004 30.546 38.6751 29.9555 38.0595 29.6027C37.7131 29.4041 37.5462 29.381 36.1306 29.3354C34.4366 29.2808 34.2611 29.2336 33.7117 28.6839C33.1742 28.1462 33.1681 28.1003 33.1681 24.6005V21.4058H33.5182C34.0811 21.4058 35.2223 21.0733 35.9223 20.7052C36.7294 20.2809 37.671 19.364 38.0593 18.6244C38.8595 17.0999 38.838 15.779 37.9717 13.236C37.0263 10.4615 35.5262 8.00915 33.4933 5.91496C30.5309 2.86341 26.8219 0.918048 22.5943 0.198342C21.7617 0.0566256 18.4045 -0.0573675 17.672 0.0311823ZM20.9667 3.90093C23.4064 4.14825 25.6921 4.91446 27.7445 6.17322C31.0681 8.21151 33.8233 11.9879 34.6765 15.6747C34.8142 16.2691 34.8205 16.4156 34.719 16.6606C34.5726 17.0142 34.1537 17.3413 33.6695 17.4798C33.401 17.5566 29.602 17.577 19.2672 17.557C5.29487 17.5301 5.22806 17.5291 4.91075 17.3427C4.73546 17.2397 4.49582 17.014 4.37823 16.8411C4.09894 16.4309 4.14424 16.0186 4.62754 14.5725C5.50954 11.9333 7.0947 9.51285 9.0845 7.76675C12.3705 4.88318 16.7142 3.46994 20.9667 3.90093ZM14.8407 9.76619C13.5207 10.1223 12.798 11.5255 13.214 12.9247C13.3978 13.5428 14.1279 14.2376 14.7984 14.4327C16.9069 15.0459 18.6676 12.8484 17.6162 10.9159C17.3202 10.3717 16.8021 9.9618 16.1749 9.77549C15.6425 9.61727 15.3989 9.61554 14.8407 9.76619ZM22.4064 9.76108C21.0765 10.1362 20.3671 11.5257 20.7844 12.938C20.9629 13.5419 21.7003 14.2396 22.3641 14.4327C23.6655 14.8112 24.9938 14.1 25.4183 12.7974C25.5634 12.3525 25.495 11.5143 25.276 11.0526C24.7889 10.0258 23.5096 9.45002 22.4064 9.76108Z" fill="#52525C"/>
</svg>
