<svg width="30" height="30" viewBox="0 0 30 30" fill="none" xmlns="http://www.w3.org/2000/svg">
<path d="M29.7231 14.3245C29.5831 10.4931 27.9686 6.864 25.2165 4.1948C22.4644 1.5256 18.7876 0.0227241 14.9538 4.10463e-06H14.8814C12.2996 -0.0019139 9.76188 0.668377 7.51775 1.94492C5.27367 3.22146 3.4006 5.06026 2.08285 7.28039C0.7651 9.50053 0.0480799 12.0255 0.00233486 14.6068C-0.0434091 17.1882 0.5837 19.7369 1.82196 22.0024L0.50712 29.8703C0.50498 29.8864 0.5063 29.9028 0.511 29.9184C0.51569 29.934 0.52366 29.9484 0.53436 29.9607C0.54506 29.973 0.55825 29.9828 0.57305 29.9896C0.58785 29.9964 0.60393 29.9999 0.62021 30H0.64283L8.42479 28.269C10.4355 29.2343 12.6374 29.7352 14.8678 29.7346C15.0096 29.7346 15.1513 29.7346 15.293 29.7346C17.255 29.6786 19.1865 29.2346 20.9759 28.4282C22.7654 27.6218 24.3774 26.469 25.719 25.0363C27.0606 23.6036 28.1052 21.9194 28.7924 20.0808C29.4796 18.2423 29.7959 16.2859 29.7231 14.3245ZM15.2191 27.1486C15.1015 27.1486 14.9839 27.1486 14.8678 27.1486C12.8966 27.1511 10.9536 26.6794 9.20284 25.7735L8.80477 25.5654L3.52733 26.8124L4.50139 21.4731L4.27522 21.0901C3.19497 19.2484 2.61311 17.157 2.58696 15.0219C2.56081 12.8869 3.09126 10.7818 4.12607 8.91419C5.16089 7.0465 6.66436 5.48059 8.48842 4.37068C10.3125 3.26076 12.3942 2.64514 14.5286 2.58445C14.6472 2.58445 14.7663 2.58445 14.8859 2.58445C18.1084 2.594 21.1981 3.86908 23.4894 6.13498C25.7807 8.40087 27.0902 11.4762 27.1357 14.6983C27.1811 17.9205 25.959 21.0315 23.7326 23.3612C21.5061 25.6909 18.4536 27.0527 15.2327 27.1532L15.2191 27.1486Z" fill="#25D366"/>
<path d="M9.69858 7.69007C9.51488 7.69366 9.33374 7.73407 9.16591 7.80892C8.99808 7.88377 8.84697 7.99154 8.72154 8.12584C8.36719 8.48923 7.37654 9.36378 7.31924 11.2003C7.26195 13.0368 8.54512 14.8538 8.72455 15.1086C8.90399 15.3634 11.1778 19.3306 14.9233 20.9394C17.1248 21.8879 18.0898 22.0507 18.7155 22.0507C18.9734 22.0507 19.1679 22.0236 19.3714 22.0115C20.0575 21.9693 21.6061 21.1762 21.9438 20.3137C22.2816 19.4512 22.3042 18.6973 22.2152 18.5465C22.1263 18.3957 21.882 18.2871 21.5141 18.0941C21.1462 17.9011 19.3413 16.9361 19.002 16.8004C18.8762 16.7418 18.7408 16.7066 18.6024 16.6964C18.5123 16.7011 18.4247 16.7277 18.3472 16.774C18.2697 16.8202 18.2046 16.8847 18.1576 16.9617C17.8561 17.3372 17.164 18.1529 16.9317 18.3882C16.881 18.4466 16.8185 18.4937 16.7484 18.5265C16.6783 18.5592 16.602 18.5768 16.5246 18.5782C16.382 18.5719 16.2425 18.5343 16.116 18.4681C15.0227 18.0038 14.0259 17.3389 13.1772 16.5079C12.3842 15.7263 11.7114 14.8315 11.1808 13.8526C10.9758 13.4726 11.1808 13.2766 11.3678 13.0987C11.5548 12.9207 11.7553 12.675 11.9483 12.4623C12.1067 12.2807 12.2387 12.0777 12.3404 11.8592C12.393 11.7578 12.4196 11.6449 12.4177 11.5307C12.4159 11.4164 12.3857 11.3045 12.3298 11.2048C12.2409 11.0148 11.5759 9.14665 11.2638 8.39725C11.0105 7.75642 10.7089 7.73531 10.445 7.71571C10.2279 7.70063 9.97908 7.69309 9.73028 7.68555H9.69858" fill="#25D366"/>
</svg>
