<svg width="1169" height="192" viewBox="0 0 1169 192" fill="none" xmlns="http://www.w3.org/2000/svg">
<path d="M1105.08 1.64984V19.2825H1125.09V132.503H1105.08V150.135H1167.16V132.503H1147.26V19.2825H1167.16V1.64984H1105.08ZM1168.81 20.9323H1148.91V130.853H1168.81V151.785H1103.43V130.853H1123.44V20.9323H1103.43V0H1168.81V20.9323Z" fill="url(#paint0_linear_2401_22)"/>
<path d="M1033.7 0L1095.89 151.785H1068.58L1050.61 105.28H989.759L971.749 151.785H944.438L1006.94 0H1033.7ZM1008.05 1.64984L946.902 150.135H970.618L988.628 103.63H1051.74L1069.71 150.135H1093.43L1032.59 1.64984H1008.05ZM1044.76 85.5853H995.617L1020.22 22.0666L1044.76 85.5853ZM998.026 83.9355H1042.36L1020.21 26.6375L998.026 83.9355Z" fill="url(#paint1_linear_2401_22)"/>
<path d="M803.826 37.1211L804.208 38.2392L834.422 127.129L865.086 37.1211H891.971L838.316 176.814C836.487 181.778 833.49 185.583 829.308 188.131C825.263 190.705 820.833 192 816.05 192H795.324V172.098H814.4V173.748H796.974V190.35H816.05C820.518 190.35 824.643 189.147 828.424 186.741C832.273 184.403 835.057 180.898 836.776 176.223L889.571 38.7709H866.267L834.42 132.251L802.645 38.7709H779.238L824.299 154.978L819.349 169.005C818.731 170.655 818.078 171.858 817.39 172.614C816.703 173.37 815.706 173.748 814.4 173.748V172.098C815.379 172.098 815.876 171.826 816.169 171.504C816.649 170.976 817.214 170 817.804 168.425L822.54 155.004L776.829 37.1211H803.826Z" fill="url(#paint2_linear_2401_22)"/>
<path d="M764.802 80.6392C764.802 71.4964 763.29 63.6253 760.265 57.0259C757.309 50.4266 753.013 45.3052 747.376 41.6618C741.739 38.0184 734.865 36.1967 726.753 36.1967C717.679 36.1967 709.98 38.4309 703.655 42.8992C697.802 46.9707 693.336 52.0152 690.25 58.0297V38.7746H670.349V150.139H691.281V93.8379C691.281 80.5017 694.1 70.3621 699.737 63.419C705.442 56.476 712.695 53.0044 721.494 53.0044C729.537 53.0044 735.277 55.651 738.714 60.9443C742.151 66.2375 743.87 73.318 743.87 82.1859V150.139H764.802V80.6392ZM691.9 52.1457C694.781 48.0921 698.385 44.5547 702.713 41.5442C709.359 36.8517 717.403 34.5469 726.753 34.5469C734.854 34.5469 741.865 36.3121 747.709 39.9217L748.272 40.2762C754.193 44.1037 758.69 49.4775 761.765 56.3379C764.911 63.2013 766.452 71.3187 766.452 80.6392V151.788H742.22V82.1859C742.22 73.7839 740.641 67.203 737.627 62.3105L737.33 61.8433C734.281 57.1476 729.152 54.6543 721.494 54.6543C713.201 54.6543 706.411 57.8952 701.011 64.4663C695.71 71.0012 692.931 80.7065 692.931 93.8379V151.788H668.699V37.1247H691.9V52.1457Z" fill="url(#paint3_linear_2401_22)"/>
<path d="M645.601 94.4566C645.601 82.9765 643.332 72.8712 638.795 64.1408C634.258 55.4104 627.9 48.5705 619.719 43.621C611.607 38.6715 602.224 36.1967 591.569 36.1967C580.914 36.1967 571.496 38.6715 563.315 43.621C555.204 48.5705 548.879 55.4104 544.342 64.1408C539.805 72.8712 537.537 82.9765 537.537 94.4566C537.537 105.937 539.805 116.042 544.342 124.772C548.879 133.503 555.204 140.343 563.315 145.292C571.496 150.242 580.914 152.716 591.569 152.716C602.224 152.716 611.607 150.242 619.719 145.292C627.9 140.343 634.258 133.503 638.795 124.772C643.332 116.042 645.601 105.937 645.601 94.4566ZM621.472 94.4566C621.472 81.8277 618.702 72.0812 613.352 65.035C608.044 58.0441 600.843 54.5512 591.569 54.5512C582.295 54.5512 575.094 58.0441 569.786 65.035C564.436 72.0812 561.665 81.8277 561.665 94.4566C561.665 107.01 564.433 116.759 569.786 123.878C575.094 130.869 582.295 134.362 591.569 134.362V136.012C581.807 136.012 574.108 132.3 568.471 124.875C562.834 117.382 560.016 107.243 560.016 94.4566C560.016 81.6016 562.834 71.462 568.471 64.0377C574.108 56.6134 581.807 52.9013 591.569 52.9013C601.33 52.9013 609.029 56.6134 614.666 64.0377C620.303 71.462 623.122 81.6016 623.122 94.4566C623.122 107.243 620.303 117.382 614.666 124.875C609.029 132.3 601.33 136.012 591.569 136.012V134.362C600.843 134.362 608.044 130.869 613.352 123.878C618.705 116.759 621.472 107.01 621.472 94.4566ZM647.251 94.4566C647.251 106.157 644.938 116.531 640.26 125.533C635.587 134.524 629.02 141.593 620.573 146.704C612.173 151.827 602.487 154.366 591.569 154.366C580.989 154.366 571.537 151.983 563.259 147.177L562.461 146.704L562.457 146.7C554.079 141.588 547.548 134.52 542.878 125.533C538.2 116.531 535.887 106.157 535.887 94.4566C535.887 82.7561 538.2 72.382 542.878 63.3804C547.548 54.3929 554.079 47.3247 562.457 42.2128L562.461 42.2096C570.928 37.0869 580.648 34.5469 591.569 34.5469C602.487 34.5469 612.173 37.0857 620.573 42.2096C628.756 47.1609 635.174 53.9491 639.815 62.5425L640.26 63.3804C644.938 72.382 647.251 82.7561 647.251 94.4566Z" fill="url(#paint4_linear_2401_22)"/>
<path d="M513.82 80.6392C513.82 66.6156 510.727 55.7198 504.54 47.9518C498.422 40.1151 489.966 36.1967 479.174 36.1967C471.268 36.1967 464.257 38.259 458.138 42.3836C452.02 46.5082 447.105 52.1108 443.393 59.1913C440.781 51.8358 436.759 46.1645 431.329 42.1774C425.898 38.1903 419.436 36.1967 411.943 36.1967C403.762 36.1967 396.682 38.259 390.701 42.3836C384.789 46.5082 380.424 51.5608 377.606 57.5415V38.7746H357.705V150.139H378.637V92.8067C378.637 84.4201 379.805 77.2708 382.143 71.3589C384.549 65.4469 387.848 60.9099 392.042 57.7477C396.235 54.5855 401.013 53.0044 406.375 53.0044C411.187 53.0044 414.933 54.2074 417.614 56.6134C420.364 58.9507 422.323 62.2504 423.492 66.5125C424.729 70.7745 425.348 75.7584 425.348 81.4641V150.139H446.28V92.8067C446.28 84.4888 447.449 77.3739 449.786 71.462C452.123 65.5501 455.354 61.013 459.479 57.8508C463.672 54.6199 468.45 53.0044 473.812 53.0044C478.624 53.0044 482.405 54.2074 485.154 56.6134C487.973 58.9507 489.966 62.2504 491.135 66.5125C492.304 70.7745 492.888 75.7584 492.888 81.4641V150.139H513.82V80.6392ZM379.256 51.3981C381.989 47.4608 385.495 44.0041 389.757 41.0302L389.765 41.0254C396.055 36.6876 403.472 34.5469 411.943 34.5469C419.502 34.5469 426.133 36.501 431.764 40.4583L432.305 40.8482C437.198 44.4409 440.969 49.3094 443.652 55.389C447.243 49.4942 451.762 44.693 457.217 41.0157C463.627 36.6943 470.965 34.5469 479.174 34.5469C490.419 34.5469 499.371 38.6573 505.831 46.9239C512.329 55.0833 515.47 66.393 515.47 80.6392V151.788H491.238V81.4641C491.238 76.2156 490.734 71.6417 489.748 67.7241L489.543 66.9491C488.445 62.9447 486.609 59.9627 484.101 57.883L484.085 57.8702L484.069 57.8557C481.704 55.7868 478.353 54.6543 473.812 54.6543C468.809 54.6543 464.387 56.1521 460.486 59.1575L460.483 59.1607C456.643 62.1043 453.572 66.3723 451.32 72.0678C449.079 77.7371 447.93 84.6357 447.93 92.8067V151.788H423.698V81.4641C423.698 76.2213 423.164 71.6549 422.122 67.745L421.908 66.9733L421.903 66.9604L421.9 66.9491C420.868 63.1855 419.214 60.3265 416.997 58.2713L416.546 57.8702L416.528 57.8557L416.512 57.8412C414.223 55.7872 410.919 54.6543 406.375 54.6543C401.363 54.6543 396.937 56.1242 393.036 59.0656C389.127 62.0135 385.988 66.2853 383.67 71.9808C381.433 77.6459 380.287 84.5726 380.287 92.8067V151.788H356.055V37.1247H379.256V51.3981Z" fill="url(#paint5_linear_2401_22)"/>
<path d="M274.594 38.7746V150.139H295.526V96.8282C295.526 87.9604 296.626 80.8111 298.826 75.3803C301.095 69.8809 303.879 65.7219 307.178 62.9035C310.478 60.085 313.881 58.1945 317.387 57.2321C320.961 56.201 324.055 55.6854 326.667 55.6854C330.517 55.6854 334.401 56.3041 338.319 57.5415L340.691 38.4652C338.903 37.6403 337.013 37.056 335.019 36.7123C333.026 36.3686 331.032 36.1967 329.039 36.1967C322.027 36.1967 315.221 38.1903 308.622 42.1774C302.542 45.8892 297.834 51.2699 294.495 58.3181V38.7746H274.594ZM296.145 52.0297C299.242 47.3711 303.112 43.608 307.762 40.7692L307.768 40.766C314.598 36.6393 321.697 34.5469 329.039 34.5469C330.867 34.5469 332.694 34.684 334.518 34.9593L335.3 35.0866C337.431 35.4541 339.46 36.08 341.382 36.9669L342.476 37.4728L339.711 59.7117L337.823 59.114C334.054 57.9239 330.337 57.3353 326.667 57.3353C324.26 57.3353 321.328 57.8127 317.844 58.8175L317.823 58.8224C314.592 59.7094 311.4 61.4674 308.25 64.1586C305.209 66.7563 302.556 70.6664 300.352 76.0087C298.264 81.1675 297.176 88.0794 297.176 96.8282V151.788H272.944V37.1247H296.145V52.0297Z" fill="url(#paint6_linear_2401_22)"/>
<path d="M146.113 119.72C146.113 112.294 148.284 105.623 152.624 99.7638C156.98 93.8149 163.489 89.2182 172.016 85.9061C180.656 82.5083 191.428 80.8454 204.27 80.8454V82.4953C191.553 82.4953 181 84.1451 172.614 87.4448C164.296 90.6757 158.075 95.1096 153.95 100.747C149.825 106.315 147.763 112.639 147.763 119.72C147.763 126.25 149.31 131.99 152.403 136.94C155.565 141.889 159.931 145.739 165.499 148.489C171.136 151.238 177.632 152.613 184.988 152.613C190.968 152.613 196.193 151.788 200.661 150.139C205.129 148.489 208.91 146.323 212.004 143.642C215.166 140.961 217.709 138.074 219.634 134.981C220.074 134.298 220.487 133.617 220.88 132.941C220.972 138.033 222.685 142.15 226.027 145.292C229.464 148.523 233.967 150.139 239.535 150.139H251.6V133.537H245.619V131.887H253.25V151.788H239.535C233.812 151.788 229.004 150.169 225.257 146.823L224.898 146.494C222.312 144.064 220.626 141.11 219.807 137.686C217.974 140.244 215.729 142.643 213.083 144.888C209.817 147.718 205.858 149.979 201.233 151.687C196.542 153.419 191.115 154.263 184.988 154.263C177.424 154.263 170.673 152.848 164.775 149.971L164.769 149.968C158.947 147.093 154.346 143.045 151.013 137.828L151.005 137.815C147.728 132.573 146.113 126.522 146.113 119.72ZM170.242 118.895C170.242 115.664 171.239 112.399 173.232 109.099C175.295 105.73 178.801 102.912 183.75 100.643C188.7 98.3749 195.505 97.2407 204.167 97.2407H220.356V98.5812C220.356 107.38 218.981 114.564 216.231 120.132C213.482 125.7 209.804 129.825 205.198 132.506C200.661 135.118 195.677 136.424 190.246 136.424V134.774C195.397 134.774 200.093 133.54 204.368 131.08C208.65 128.588 212.122 124.729 214.752 119.402C217.322 114.199 218.671 107.391 218.703 98.8905H204.167C195.618 98.8905 189.082 100.015 184.438 102.143C179.677 104.326 176.477 106.959 174.639 109.961C172.774 113.05 171.892 116.021 171.892 118.895C171.892 121.799 172.518 124.453 173.759 126.883C175.031 129.174 176.98 131.084 179.682 132.598C182.326 134.012 185.816 134.774 190.246 134.774V136.424C185.641 136.424 181.86 135.634 178.904 134.053C175.948 132.403 173.748 130.272 172.304 127.66C170.93 124.979 170.242 122.057 170.242 118.895ZM218.603 78.3707C218.603 70.0999 216.95 64.0466 213.882 59.9776L213.873 59.9647C210.996 56.0698 206.066 53.9325 198.599 53.9325C191.453 53.9325 186.214 55.7813 182.627 59.2445C179.071 62.6756 177.064 67.4371 176.737 73.7128L176.635 75.6365L150.576 70.1875L150.766 68.6779C151.563 62.3772 154.066 56.6285 158.234 51.4545C162.415 46.2649 168.041 42.1622 175.05 39.1178L175.055 39.1145C182.178 36.0515 190.487 34.5469 199.939 34.5469C209.334 34.5469 217.228 36.2621 223.524 39.8041C229.834 43.286 234.508 48.5147 237.533 55.418C240.614 62.2248 242.113 70.6201 242.113 80.5361V127.866C242.113 128.936 242.187 129.761 242.311 130.371C242.425 130.927 242.563 131.203 242.642 131.319C242.725 131.394 242.931 131.537 243.391 131.66C243.908 131.799 244.638 131.887 245.619 131.887V133.537C243.488 133.537 242.079 133.159 241.391 132.403C240.773 131.647 240.463 130.134 240.463 127.866V80.5361C240.463 70.7745 238.985 62.6285 236.029 56.0979C233.142 49.4985 228.708 44.549 222.728 41.2493C216.747 37.8809 209.151 36.1967 199.939 36.1967C190.659 36.1967 182.582 37.6747 175.707 40.6306C168.902 43.5866 163.505 47.5393 159.518 52.4889C155.531 57.4384 153.159 62.9034 152.403 68.8841L175.089 73.6274C175.432 67.028 177.563 61.8379 181.482 58.0571C185.469 54.2074 191.174 52.2826 198.599 52.2826C206.367 52.2826 211.901 54.5168 215.2 58.9851C218.569 63.4534 220.253 69.9153 220.253 78.3707V82.4953H204.27V80.8454H218.603V78.3707Z" fill="url(#paint7_linear_2401_22)"/>
<path d="M23.8195 1.64984H1.64984V150.135H23.8195V83.2137H100.846V150.135H122.913V1.64984H100.846V64.8592H23.8195V1.64984ZM124.563 151.785H99.1965V84.8635H25.4694V151.785H0V0H25.4694V63.2094H99.1965V0H124.563V151.785Z" fill="url(#paint8_linear_2401_22)"/>
<defs>
<linearGradient id="paint0_linear_2401_22" x1="1138.75" y1="139.137" x2="1138.75" y2="-16.9968" gradientUnits="userSpaceOnUse">
<stop stop-color="#1A2818"/>
<stop offset="0.394231" stop-color="#23571A"/>
<stop offset="1" stop-color="#598751"/>
</linearGradient>
<linearGradient id="paint1_linear_2401_22" x1="1026.27" y1="139.137" x2="1026.27" y2="-16.9968" gradientUnits="userSpaceOnUse">
<stop stop-color="#1A2818"/>
<stop offset="0.394231" stop-color="#23571A"/>
<stop offset="1" stop-color="#598751"/>
</linearGradient>
<linearGradient id="paint2_linear_2401_22" x1="839.04" y1="179.093" x2="839.04" y2="19.7779" gradientUnits="userSpaceOnUse">
<stop stop-color="#1A2818"/>
<stop offset="0.394231" stop-color="#23571A"/>
<stop offset="1" stop-color="#598751"/>
</linearGradient>
<linearGradient id="paint3_linear_2401_22" x1="721.515" y1="142.019" x2="721.515" y2="21.4182" gradientUnits="userSpaceOnUse">
<stop stop-color="#1A2818"/>
<stop offset="0.394231" stop-color="#23571A"/>
<stop offset="1" stop-color="#598751"/>
</linearGradient>
<linearGradient id="paint4_linear_2401_22" x1="596.056" y1="144.382" x2="596.056" y2="21.1296" gradientUnits="userSpaceOnUse">
<stop stop-color="#1A2818"/>
<stop offset="0.394231" stop-color="#23571A"/>
<stop offset="1" stop-color="#598751"/>
</linearGradient>
<linearGradient id="paint5_linear_2401_22" x1="442.186" y1="142.019" x2="442.186" y2="21.4182" gradientUnits="userSpaceOnUse">
<stop stop-color="#1A2818"/>
<stop offset="0.394231" stop-color="#23571A"/>
<stop offset="1" stop-color="#598751"/>
</linearGradient>
<linearGradient id="paint6_linear_2401_22" x1="310.512" y1="142.019" x2="310.512" y2="21.4182" gradientUnits="userSpaceOnUse">
<stop stop-color="#1A2818"/>
<stop offset="0.394231" stop-color="#23571A"/>
<stop offset="1" stop-color="#598751"/>
</linearGradient>
<linearGradient id="paint7_linear_2401_22" x1="203.998" y1="144.287" x2="203.998" y2="21.1411" gradientUnits="userSpaceOnUse">
<stop stop-color="#1A2818"/>
<stop offset="0.394231" stop-color="#23571A"/>
<stop offset="1" stop-color="#598751"/>
</linearGradient>
<linearGradient id="paint8_linear_2401_22" x1="67.3006" y1="139.137" x2="67.3006" y2="-16.9968" gradientUnits="userSpaceOnUse">
<stop stop-color="#1A2818"/>
<stop offset="0.394231" stop-color="#23571A"/>
<stop offset="1" stop-color="#598751"/>
</linearGradient>
</defs>
</svg>
