<svg width="428" height="428" viewBox="0 0 428 428" fill="none" xmlns="http://www.w3.org/2000/svg">
<path d="M161.745 96.6353C163.241 92.0287 169.759 92.0287 171.255 96.6353L176.715 113.44C177.385 115.5 179.305 116.895 181.471 116.895H199.14C203.984 116.895 205.997 123.093 202.079 125.94L187.784 136.325C186.032 137.599 185.298 139.856 185.968 141.916L191.428 158.72C192.925 163.327 187.652 167.157 183.734 164.31L169.439 153.925C167.686 152.651 165.314 152.651 163.561 153.925L149.266 164.31C145.348 167.157 140.075 163.327 141.572 158.72L147.032 141.916C147.702 139.856 146.968 137.599 145.216 136.325L130.921 125.94C127.003 123.093 129.016 116.895 133.86 116.895H151.529C153.695 116.895 155.615 115.5 156.285 113.44L161.745 96.6353Z" fill="#FFD230"/>
<path d="M257.58 96.6353C259.077 92.0287 265.594 92.0287 267.09 96.6353L272.55 113.44C273.22 115.5 275.14 116.895 277.306 116.895H294.975C299.819 116.895 301.832 123.093 297.914 125.94L283.619 136.325C281.867 137.599 281.133 139.856 281.803 141.916L287.263 158.72C288.76 163.327 283.487 167.157 279.569 164.31L265.274 153.925C263.522 152.651 261.149 152.651 259.396 153.925L245.101 164.31C241.183 167.157 235.91 163.327 237.407 158.72L242.867 141.916C243.537 139.856 242.803 137.599 241.051 136.325L226.756 125.94C222.838 123.093 224.851 116.895 229.695 116.895H247.364C249.531 116.895 251.45 115.5 252.12 113.44L257.58 96.6353Z" fill="#FFD230"/>
<path fill-rule="evenodd" clip-rule="evenodd" d="M193.735 0.341932C163.564 3.98993 140.522 10.7429 116.289 23.0379C62.2838 50.4379 22.2987 100.14 6.79257 159.145C3.65376 171.089 2.97424 183.131 4.95186 191.727C8.06068 205.233 19.9534 219.912 33.5469 227.021C41.3144 231.083 53.8187 234.727 59.9884 234.727H63.8257V268.361C63.8257 304.708 63.5349 307.198 58.5913 313.2C52.9513 320.047 49.4787 321.085 30.1822 321.689C13.1101 322.224 13.0072 322.241 8.77418 325.227C-5.49684 335.292 -1.63054 358.265 15.0968 362.797C21.5043 364.533 52.7594 363.45 59.8285 361.247C79.9094 354.989 95.1608 340.083 103.052 319.002C105.108 313.511 105.232 311.299 105.568 273.958L105.922 234.688L127.594 234.958L149.266 235.227L149.766 324.227C150.315 422.169 149.874 415.701 156.422 421.924C166.847 431.833 183.724 428.451 189.842 415.227C191.598 411.43 191.693 406.742 191.714 322.957L191.736 234.688L213.471 234.957L235.206 235.227L235.705 324.891L236.205 414.556L239.203 418.815C249.191 433.004 271.566 429.402 276.536 412.805C277.352 410.077 277.676 384.256 277.676 321.861V234.727H299.07H320.463L320.912 272.477C321.409 314.235 321.499 314.928 328.271 328.727C333.13 338.631 345.108 350.764 355.122 355.928C366.89 361.995 371.208 362.906 390.876 363.468C406.107 363.904 409.286 363.731 413.15 362.254C422.08 358.841 427.503 351.637 427.549 343.126C427.593 334.955 423.988 328.48 417.24 324.611C413.441 322.433 411.611 322.18 396.093 321.68C377.522 321.081 375.598 320.563 369.575 314.536C363.683 308.64 363.616 308.136 363.616 269.759V234.727H367.453C373.625 234.727 386.135 231.081 393.81 227.045C402.658 222.392 412.98 212.338 417.237 204.227C426.009 187.51 425.774 173.026 416.276 145.141C405.912 114.716 389.467 87.8249 367.181 64.8609C334.704 31.3989 294.044 10.0669 247.697 2.17493C238.569 0.620932 201.765 -0.629068 193.735 0.341932ZM229.854 42.7759C256.6 45.4879 281.657 53.8899 304.158 67.6929C340.594 90.0439 370.798 131.454 380.152 171.882C381.661 178.4 381.73 180.007 380.618 182.693C379.013 186.571 374.42 190.157 369.112 191.676C366.169 192.518 324.521 192.742 211.223 192.523C58.0467 192.228 57.3142 192.217 53.8357 190.173C51.914 189.043 49.2868 186.568 47.9978 184.673C44.9359 180.174 45.4325 175.653 50.7308 159.796C60.4001 130.856 77.7779 104.314 99.5917 85.1669C135.615 53.5469 183.235 38.0499 229.854 42.7759Z" fill="#FFD230"/>
</svg>
